<?xml version="1.0" encoding="UTF-8"?>
<svg xmlns="http://www.w3.org/2000/svg" xmlns:xlink="http://www.w3.org/1999/xlink" width="45px" height="36px" viewBox="0 0 45 36" version="1.1">
<g id="surface1">
<path style=" stroke:none;fill-rule:nonzero;fill:rgb(88.235294%,88.235294%,88.235294%);fill-opacity:1;" d="M 38.105469 0 C 34.398438 0 31.378906 3.03125 31.378906 6.75 C 31.378906 10.46875 34.398438 13.5 38.105469 13.5 C 41.8125 13.5 44.832031 10.46875 44.832031 6.75 C 44.832031 3.03125 41.8125 0 38.105469 0 Z M 38.105469 1.5 C 41.003906 1.5 43.335938 3.839844 43.335938 6.75 C 43.335938 9.660156 41.003906 12 38.105469 12 C 35.207031 12 32.875 9.660156 32.875 6.75 C 32.875 3.839844 35.207031 1.5 38.105469 1.5 Z M 38.105469 3 C 37.691406 3 37.359375 3.335938 37.359375 3.75 L 37.359375 6 L 35.117188 6 C 34.703125 6 34.367188 6.335938 34.367188 6.75 C 34.367188 7.164062 34.703125 7.5 35.117188 7.5 L 37.359375 7.5 L 37.359375 9.75 C 37.359375 10.164062 37.691406 10.5 38.105469 10.5 C 38.519531 10.5 38.851562 10.164062 38.851562 9.75 L 38.851562 7.5 L 41.09375 7.5 C 41.507812 7.5 41.839844 7.164062 41.839844 6.75 C 41.839844 6.335938 41.507812 6 41.09375 6 L 38.851562 6 L 38.851562 3.75 C 38.851562 3.335938 38.519531 3 38.105469 3 Z M 15.6875 19.5 L 35.117188 19.5 C 35.53125 19.5 35.863281 19.835938 35.863281 20.25 C 35.863281 20.664062 35.53125 21 35.117188 21 L 15.6875 21 C 15.273438 21 14.941406 20.664062 14.941406 20.25 C 14.941406 19.835938 15.273438 19.5 15.6875 19.5 Z M 14.191406 13.5 L 32.128906 13.5 C 32.542969 13.5 32.875 13.835938 32.875 14.25 C 32.875 14.664062 32.542969 15 32.128906 15 L 14.191406 15 C 13.78125 15 13.445312 14.664062 13.445312 14.25 C 13.445312 13.835938 13.78125 13.5 14.191406 13.5 Z M 32.128906 28.5 C 30.070312 28.5 28.390625 30.1875 28.390625 32.25 C 28.390625 34.3125 30.070312 36 32.128906 36 C 34.183594 36 35.863281 34.3125 35.863281 32.25 C 35.863281 30.1875 34.183594 28.5 32.128906 28.5 Z M 32.128906 30 C 33.375 30 34.367188 31 34.367188 32.25 C 34.367188 33.5 33.375 34.5 32.128906 34.5 C 30.878906 34.5 29.886719 33.5 29.886719 32.25 C 29.886719 31 30.878906 30 32.128906 30 Z M 17.183594 28.5 C 15.128906 28.5 13.445312 30.1875 13.445312 32.25 C 13.445312 34.3125 15.128906 36 17.183594 36 C 19.238281 36 20.917969 34.3125 20.917969 32.25 C 20.917969 30.1875 19.238281 28.5 17.183594 28.5 Z M 17.183594 30 C 18.429688 30 19.425781 31 19.425781 32.25 C 19.425781 33.5 18.429688 34.5 17.183594 34.5 C 15.9375 34.5 14.941406 33.5 14.941406 32.25 C 14.941406 31 15.9375 30 17.183594 30 Z M 0.753906 1.5 C -0.246094 1.5 -0.257812 3 0.753906 3 L 6.125 3 C 6.234375 3.53125 7.078125 7.582031 8.085938 12.34375 C 8.621094 14.875 9.167969 17.453125 9.609375 19.492188 C 10.046875 21.535156 10.363281 22.984375 10.488281 23.445312 C 10.683594 24.183594 10.871094 25.027344 11.414062 25.757812 C 11.953125 26.492188 12.90625 27 14.191406 27 L 35.105469 27 C 36.390625 27 37.34375 26.492188 37.886719 25.757812 C 38.429688 25.023438 38.613281 24.183594 38.8125 23.441406 C 38.945312 22.945312 39.148438 21.789062 39.425781 20.335938 C 39.699219 18.882812 40.023438 17.199219 40.324219 15.917969 C 40.570312 14.996094 39.042969 14.597656 38.871094 15.578125 C 38.5625 16.902344 38.230469 18.59375 37.957031 20.054688 C 37.679688 21.511719 37.4375 22.800781 37.371094 23.054688 C 37.167969 23.8125 36.976562 24.472656 36.6875 24.863281 C 36.398438 25.253906 36.058594 25.5 35.105469 25.5 L 14.191406 25.5 C 13.238281 25.5 12.902344 25.253906 12.609375 24.863281 C 12.320312 24.472656 12.132812 23.8125 11.925781 23.054688 C 11.851562 22.765625 11.507812 21.214844 11.070312 19.175781 C 10.632812 17.140625 10.082031 14.5625 9.550781 12.03125 C 8.480469 6.972656 7.457031 2.09375 7.457031 2.09375 C 7.386719 1.75 7.082031 1.5 6.726562 1.5 Z M 12.703125 7.5 C 11.707031 7.5 11.71875 9 12.703125 9 L 27.632812 9 C 28.640625 9 28.617188 7.5 27.632812 7.5 Z M 12.703125 7.5 "/>
</g>
</svg>
